<svg width="35" height="35" viewBox="0 0 35 35" fill="none" xmlns="http://www.w3.org/2000/svg">
<g id="Group 13921">
<path id="Vector" d="M32.1666 16.6639C32.1724 18.871 31.6567 21.0482 30.6616 23.0183C29.4817 25.379 27.6679 27.3647 25.4233 28.7528C23.1787 30.1409 20.5919 30.8767 17.9527 30.8777C15.7456 30.8835 13.5684 30.3678 11.5983 29.3727L2.06665 32.5499L5.24387 23.0183C4.24878 21.0482 3.73312 18.871 3.73887 16.6639C3.73989 14.0247 4.47567 11.4379 5.86379 9.19331C7.25191 6.94869 9.23755 5.13486 11.5983 3.955C13.5684 2.95991 15.7456 2.44424 17.9527 2.45H18.7888C22.2743 2.64229 25.5664 4.11346 28.0348 6.58182C30.5031 9.05018 31.9743 12.3423 32.1666 15.8278V16.6639Z" fill="#DD88CF" stroke="white" stroke-width="3.7625" stroke-linecap="round" stroke-linejoin="round"/>
<path id="Ellipse 106" d="M25.5822 17.5C25.5822 19.4957 24.7894 21.4097 23.3782 22.821C21.967 24.2322 20.053 25.025 18.0572 25.025C16.0615 25.025 14.1475 24.2322 12.7362 22.821C11.325 21.4097 10.5322 19.4957 10.5322 17.5L18.0572 17.5H25.5822Z" fill="white"/>
<circle id="Ellipse 107" cx="23.701" cy="11.8562" r="1.88125" fill="white"/>
<circle id="Ellipse 109" cx="18.0573" cy="11.8562" r="1.88125" fill="white"/>
<circle id="Ellipse 108" cx="12.4135" cy="11.8562" r="1.88125" fill="white"/>
</g>
</svg>
